<mxfile host="app.diagrams.net" modified="2023-10-09T12:34:03.042Z" agent="Mozilla/5.0 (Windows NT 10.0; Win64; x64) AppleWebKit/537.36 (KHTML, like Gecko) Chrome/117.0.0.0 Safari/537.36" etag="GzayFNgm5siBqQfhXVqz" version="22.0.4" type="device" pages="4">
  <diagram id="C5RBs43oDa-KdzZeNtuy" name="Login_page_activity">
    <mxGraphModel dx="1120" dy="446" grid="1" gridSize="10" guides="1" tooltips="1" connect="1" arrows="1" fold="1" page="1" pageScale="1" pageWidth="827" pageHeight="1169" math="0" shadow="0">
      <root>
        <mxCell id="WIyWlLk6GJQsqaUBKTNV-0" />
        <mxCell id="WIyWlLk6GJQsqaUBKTNV-1" parent="WIyWlLk6GJQsqaUBKTNV-0" />
        <mxCell id="WIyWlLk6GJQsqaUBKTNV-2" value="" style="rounded=0;html=1;jettySize=auto;orthogonalLoop=1;fontSize=11;endArrow=block;endFill=0;endSize=8;strokeWidth=1;shadow=0;labelBackgroundColor=none;edgeStyle=orthogonalEdgeStyle;fontColor=default;strokeColor=#23445D;" parent="WIyWlLk6GJQsqaUBKTNV-1" edge="1">
          <mxGeometry relative="1" as="geometry">
            <mxPoint x="220" y="168" as="sourcePoint" />
            <mxPoint x="220" y="218" as="targetPoint" />
          </mxGeometry>
        </mxCell>
        <mxCell id="WIyWlLk6GJQsqaUBKTNV-3" value="Login Page" style="rounded=1;whiteSpace=wrap;html=1;fontSize=12;glass=0;strokeWidth=1;shadow=0;labelBackgroundColor=none;fillColor=#182E3E;strokeColor=#FFFFFF;fontColor=#FFFFFF;" parent="WIyWlLk6GJQsqaUBKTNV-1" vertex="1">
          <mxGeometry x="160" y="128" width="120" height="40" as="geometry" />
        </mxCell>
        <mxCell id="WIyWlLk6GJQsqaUBKTNV-4" value="Yes" style="rounded=0;html=1;jettySize=auto;orthogonalLoop=1;fontSize=11;endArrow=block;endFill=0;endSize=8;strokeWidth=1;shadow=0;labelBackgroundColor=none;edgeStyle=orthogonalEdgeStyle;fontColor=default;strokeColor=#23445D;" parent="WIyWlLk6GJQsqaUBKTNV-1" edge="1">
          <mxGeometry y="20" relative="1" as="geometry">
            <mxPoint as="offset" />
            <mxPoint x="220" y="298" as="sourcePoint" />
            <mxPoint x="220" y="338" as="targetPoint" />
          </mxGeometry>
        </mxCell>
        <mxCell id="WIyWlLk6GJQsqaUBKTNV-5" value="No" style="edgeStyle=orthogonalEdgeStyle;rounded=0;html=1;jettySize=auto;orthogonalLoop=1;fontSize=11;endArrow=block;endFill=0;endSize=8;strokeWidth=1;shadow=0;labelBackgroundColor=none;fontColor=default;strokeColor=#23445D;" parent="WIyWlLk6GJQsqaUBKTNV-1" edge="1">
          <mxGeometry y="10" relative="1" as="geometry">
            <mxPoint as="offset" />
            <mxPoint x="270" y="258" as="sourcePoint" />
            <mxPoint x="320" y="258" as="targetPoint" />
          </mxGeometry>
        </mxCell>
        <mxCell id="WIyWlLk6GJQsqaUBKTNV-6" value="verify login" style="rhombus;whiteSpace=wrap;html=1;shadow=0;fontFamily=Helvetica;fontSize=12;align=center;strokeWidth=1;spacing=6;spacingTop=-4;labelBackgroundColor=none;fillColor=#182E3E;strokeColor=#FFFFFF;fontColor=#FFFFFF;" parent="WIyWlLk6GJQsqaUBKTNV-1" vertex="1">
          <mxGeometry x="170" y="218" width="100" height="80" as="geometry" />
        </mxCell>
        <mxCell id="WIyWlLk6GJQsqaUBKTNV-7" value="invalid parameter" style="rounded=1;whiteSpace=wrap;html=1;fontSize=12;glass=0;strokeWidth=1;shadow=0;labelBackgroundColor=none;fillColor=#182E3E;strokeColor=#FFFFFF;fontColor=#FFFFFF;" parent="WIyWlLk6GJQsqaUBKTNV-1" vertex="1">
          <mxGeometry x="320" y="238" width="120" height="40" as="geometry" />
        </mxCell>
        <mxCell id="WIyWlLk6GJQsqaUBKTNV-8" value="Yes" style="rounded=0;html=1;jettySize=auto;orthogonalLoop=1;fontSize=11;endArrow=block;endFill=0;endSize=8;strokeWidth=1;shadow=0;labelBackgroundColor=none;edgeStyle=orthogonalEdgeStyle;fontColor=default;strokeColor=#23445D;" parent="WIyWlLk6GJQsqaUBKTNV-1" edge="1">
          <mxGeometry x="0.3333" y="20" relative="1" as="geometry">
            <mxPoint as="offset" />
            <mxPoint x="220" y="418" as="sourcePoint" />
            <mxPoint x="220" y="478" as="targetPoint" />
          </mxGeometry>
        </mxCell>
        <mxCell id="WIyWlLk6GJQsqaUBKTNV-10" value="welcome page" style="rhombus;whiteSpace=wrap;html=1;shadow=0;fontFamily=Helvetica;fontSize=12;align=center;strokeWidth=1;spacing=6;spacingTop=-4;labelBackgroundColor=none;fillColor=#182E3E;strokeColor=#FFFFFF;fontColor=#FFFFFF;" parent="WIyWlLk6GJQsqaUBKTNV-1" vertex="1">
          <mxGeometry x="170" y="338" width="100" height="80" as="geometry" />
        </mxCell>
        <mxCell id="WIyWlLk6GJQsqaUBKTNV-11" value="Home Page" style="rounded=1;whiteSpace=wrap;html=1;fontSize=12;glass=0;strokeWidth=1;shadow=0;labelBackgroundColor=none;fillColor=#182E3E;strokeColor=#FFFFFF;fontColor=#FFFFFF;" parent="WIyWlLk6GJQsqaUBKTNV-1" vertex="1">
          <mxGeometry x="160" y="478" width="120" height="40" as="geometry" />
        </mxCell>
        <mxCell id="H7cnyjBKKMl_dE2a0euP-0" value="" style="strokeWidth=2;html=1;shape=mxgraph.flowchart.start_1;whiteSpace=wrap;labelBackgroundColor=none;fillColor=#182E3E;strokeColor=#FFFFFF;fontColor=#FFFFFF;" vertex="1" parent="WIyWlLk6GJQsqaUBKTNV-1">
          <mxGeometry x="205" y="43" width="30" height="30" as="geometry" />
        </mxCell>
        <mxCell id="H7cnyjBKKMl_dE2a0euP-4" value="" style="endArrow=none;html=1;rounded=0;strokeColor=#23445D;exitX=0.5;exitY=0;exitDx=0;exitDy=0;" edge="1" parent="WIyWlLk6GJQsqaUBKTNV-1">
          <mxGeometry width="50" height="50" relative="1" as="geometry">
            <mxPoint x="380" y="238" as="sourcePoint" />
            <mxPoint x="380" y="150" as="targetPoint" />
            <Array as="points">
              <mxPoint x="380" y="200" />
            </Array>
          </mxGeometry>
        </mxCell>
        <mxCell id="H7cnyjBKKMl_dE2a0euP-5" value="" style="endArrow=classic;html=1;rounded=0;strokeColor=#23445D;entryX=1;entryY=0.5;entryDx=0;entryDy=0;" edge="1" parent="WIyWlLk6GJQsqaUBKTNV-1">
          <mxGeometry width="50" height="50" relative="1" as="geometry">
            <mxPoint x="380" y="150" as="sourcePoint" />
            <mxPoint x="280" y="148" as="targetPoint" />
          </mxGeometry>
        </mxCell>
        <mxCell id="H7cnyjBKKMl_dE2a0euP-7" value="" style="ellipse;shape=doubleEllipse;whiteSpace=wrap;html=1;strokeColor=#FFFFFF;fontColor=#FFFFFF;fillColor=#182E3E;" vertex="1" parent="WIyWlLk6GJQsqaUBKTNV-1">
          <mxGeometry x="200" y="585" width="40" height="30" as="geometry" />
        </mxCell>
        <mxCell id="H7cnyjBKKMl_dE2a0euP-8" value="&lt;b&gt;&lt;font style=&quot;font-size: 13px;&quot;&gt;STOP&lt;/font&gt;&lt;/b&gt;" style="text;html=1;strokeColor=#666666;fillColor=#f5f5f5;align=center;verticalAlign=middle;whiteSpace=wrap;rounded=0;fontColor=#030303;" vertex="1" parent="WIyWlLk6GJQsqaUBKTNV-1">
          <mxGeometry x="190" y="620" width="60" height="30" as="geometry" />
        </mxCell>
        <mxCell id="H7cnyjBKKMl_dE2a0euP-9" value="&lt;b&gt;&lt;font style=&quot;font-size: 14px;&quot;&gt;Start&lt;/font&gt;&lt;/b&gt;" style="text;html=1;strokeColor=#666666;fillColor=#f5f5f5;align=center;verticalAlign=middle;whiteSpace=wrap;rounded=0;fontColor=#333333;labelBackgroundColor=default;" vertex="1" parent="WIyWlLk6GJQsqaUBKTNV-1">
          <mxGeometry x="190" width="60" height="30" as="geometry" />
        </mxCell>
        <mxCell id="H7cnyjBKKMl_dE2a0euP-10" value="" style="endArrow=classic;html=1;rounded=0;strokeColor=#23445D;exitX=0.5;exitY=1;exitDx=0;exitDy=0;exitPerimeter=0;entryX=0.5;entryY=0;entryDx=0;entryDy=0;" edge="1" parent="WIyWlLk6GJQsqaUBKTNV-1" source="H7cnyjBKKMl_dE2a0euP-0">
          <mxGeometry width="50" height="50" relative="1" as="geometry">
            <mxPoint x="270" y="270" as="sourcePoint" />
            <mxPoint x="220" y="128" as="targetPoint" />
          </mxGeometry>
        </mxCell>
        <mxCell id="H7cnyjBKKMl_dE2a0euP-11" value="" style="rounded=0;html=1;jettySize=auto;orthogonalLoop=1;fontSize=11;endArrow=block;endFill=0;endSize=8;strokeWidth=1;shadow=0;labelBackgroundColor=none;edgeStyle=orthogonalEdgeStyle;fontColor=default;strokeColor=#23445D;exitX=0.5;exitY=1;exitDx=0;exitDy=0;" edge="1" parent="WIyWlLk6GJQsqaUBKTNV-1">
          <mxGeometry x="0.3333" y="20" relative="1" as="geometry">
            <mxPoint as="offset" />
            <mxPoint x="220" y="518" as="sourcePoint" />
            <mxPoint x="220" y="580" as="targetPoint" />
            <Array as="points">
              <mxPoint x="220" y="580" />
            </Array>
          </mxGeometry>
        </mxCell>
      </root>
    </mxGraphModel>
  </diagram>
  <diagram id="qoK2ff7kQitGka9Pg5Lq" name="Register_passenger_activity">
    <mxGraphModel dx="1120" dy="446" grid="1" gridSize="10" guides="1" tooltips="1" connect="1" arrows="1" fold="1" page="1" pageScale="1" pageWidth="850" pageHeight="1400" math="0" shadow="0">
      <root>
        <mxCell id="0" />
        <mxCell id="1" parent="0" />
        <mxCell id="FvSDI9JlNfiMV472TmKZ-1" value="" style="rounded=0;html=1;jettySize=auto;orthogonalLoop=1;fontSize=11;endArrow=block;endFill=0;endSize=8;strokeWidth=1;shadow=0;labelBackgroundColor=none;edgeStyle=orthogonalEdgeStyle;fontColor=default;strokeColor=#23445D;" edge="1" parent="1">
          <mxGeometry relative="1" as="geometry">
            <mxPoint x="220" y="168" as="sourcePoint" />
            <mxPoint x="220" y="218" as="targetPoint" />
          </mxGeometry>
        </mxCell>
        <mxCell id="FvSDI9JlNfiMV472TmKZ-2" value="Register" style="rounded=1;whiteSpace=wrap;html=1;fontSize=12;glass=0;strokeWidth=1;shadow=0;labelBackgroundColor=none;fillColor=#182E3E;strokeColor=#FFFFFF;fontColor=#FFFFFF;" vertex="1" parent="1">
          <mxGeometry x="160" y="128" width="120" height="40" as="geometry" />
        </mxCell>
        <mxCell id="FvSDI9JlNfiMV472TmKZ-3" value="Yes" style="rounded=0;html=1;jettySize=auto;orthogonalLoop=1;fontSize=11;endArrow=block;endFill=0;endSize=8;strokeWidth=1;shadow=0;labelBackgroundColor=none;edgeStyle=orthogonalEdgeStyle;fontColor=default;strokeColor=#23445D;" edge="1" parent="1">
          <mxGeometry y="20" relative="1" as="geometry">
            <mxPoint as="offset" />
            <mxPoint x="220" y="298" as="sourcePoint" />
            <mxPoint x="220" y="338" as="targetPoint" />
          </mxGeometry>
        </mxCell>
        <mxCell id="FvSDI9JlNfiMV472TmKZ-4" value="No" style="edgeStyle=orthogonalEdgeStyle;rounded=0;html=1;jettySize=auto;orthogonalLoop=1;fontSize=11;endArrow=block;endFill=0;endSize=8;strokeWidth=1;shadow=0;labelBackgroundColor=none;fontColor=default;strokeColor=#23445D;" edge="1" parent="1">
          <mxGeometry y="10" relative="1" as="geometry">
            <mxPoint as="offset" />
            <mxPoint x="270" y="258" as="sourcePoint" />
            <mxPoint x="320" y="258" as="targetPoint" />
          </mxGeometry>
        </mxCell>
        <mxCell id="FvSDI9JlNfiMV472TmKZ-5" value="All data input" style="rhombus;whiteSpace=wrap;html=1;shadow=0;fontFamily=Helvetica;fontSize=12;align=center;strokeWidth=1;spacing=6;spacingTop=-4;labelBackgroundColor=none;fillColor=#182E3E;strokeColor=#FFFFFF;fontColor=#FFFFFF;" vertex="1" parent="1">
          <mxGeometry x="170" y="218" width="100" height="80" as="geometry" />
        </mxCell>
        <mxCell id="FvSDI9JlNfiMV472TmKZ-6" value="invalid parameter" style="rounded=1;whiteSpace=wrap;html=1;fontSize=12;glass=0;strokeWidth=1;shadow=0;labelBackgroundColor=none;fillColor=#182E3E;strokeColor=#FFFFFF;fontColor=#FFFFFF;" vertex="1" parent="1">
          <mxGeometry x="320" y="238" width="120" height="40" as="geometry" />
        </mxCell>
        <mxCell id="FvSDI9JlNfiMV472TmKZ-7" value="Yes" style="rounded=0;html=1;jettySize=auto;orthogonalLoop=1;fontSize=11;endArrow=block;endFill=0;endSize=8;strokeWidth=1;shadow=0;labelBackgroundColor=none;edgeStyle=orthogonalEdgeStyle;fontColor=default;strokeColor=#23445D;" edge="1" parent="1">
          <mxGeometry x="0.3333" y="20" relative="1" as="geometry">
            <mxPoint as="offset" />
            <mxPoint x="220" y="418" as="sourcePoint" />
            <mxPoint x="220" y="478" as="targetPoint" />
          </mxGeometry>
        </mxCell>
        <mxCell id="FvSDI9JlNfiMV472TmKZ-8" value="Register successfull" style="rhombus;whiteSpace=wrap;html=1;shadow=0;fontFamily=Helvetica;fontSize=12;align=center;strokeWidth=1;spacing=6;spacingTop=-4;labelBackgroundColor=none;fillColor=#182E3E;strokeColor=#FFFFFF;fontColor=#FFFFFF;" vertex="1" parent="1">
          <mxGeometry x="170" y="338" width="100" height="80" as="geometry" />
        </mxCell>
        <mxCell id="FvSDI9JlNfiMV472TmKZ-9" value="Login Page" style="rounded=1;whiteSpace=wrap;html=1;fontSize=12;glass=0;strokeWidth=1;shadow=0;labelBackgroundColor=none;fillColor=#182E3E;strokeColor=#FFFFFF;fontColor=#FFFFFF;" vertex="1" parent="1">
          <mxGeometry x="160" y="478" width="120" height="40" as="geometry" />
        </mxCell>
        <mxCell id="FvSDI9JlNfiMV472TmKZ-10" value="" style="strokeWidth=2;html=1;shape=mxgraph.flowchart.start_1;whiteSpace=wrap;labelBackgroundColor=none;fillColor=#182E3E;strokeColor=#FFFFFF;fontColor=#FFFFFF;" vertex="1" parent="1">
          <mxGeometry x="205" y="43" width="30" height="30" as="geometry" />
        </mxCell>
        <mxCell id="FvSDI9JlNfiMV472TmKZ-11" value="" style="endArrow=none;html=1;rounded=0;strokeColor=#23445D;exitX=0.5;exitY=0;exitDx=0;exitDy=0;" edge="1" parent="1">
          <mxGeometry width="50" height="50" relative="1" as="geometry">
            <mxPoint x="380" y="238" as="sourcePoint" />
            <mxPoint x="380" y="150" as="targetPoint" />
            <Array as="points">
              <mxPoint x="380" y="200" />
            </Array>
          </mxGeometry>
        </mxCell>
        <mxCell id="FvSDI9JlNfiMV472TmKZ-12" value="" style="endArrow=classic;html=1;rounded=0;strokeColor=#23445D;entryX=1;entryY=0.5;entryDx=0;entryDy=0;" edge="1" parent="1">
          <mxGeometry width="50" height="50" relative="1" as="geometry">
            <mxPoint x="380" y="150" as="sourcePoint" />
            <mxPoint x="280" y="148" as="targetPoint" />
          </mxGeometry>
        </mxCell>
        <mxCell id="FvSDI9JlNfiMV472TmKZ-13" value="" style="ellipse;shape=doubleEllipse;whiteSpace=wrap;html=1;strokeColor=#FFFFFF;fontColor=#FFFFFF;fillColor=#182E3E;" vertex="1" parent="1">
          <mxGeometry x="200" y="585" width="40" height="30" as="geometry" />
        </mxCell>
        <mxCell id="FvSDI9JlNfiMV472TmKZ-14" value="&lt;b&gt;&lt;font style=&quot;font-size: 13px;&quot;&gt;STOP&lt;/font&gt;&lt;/b&gt;" style="text;html=1;strokeColor=#666666;fillColor=#f5f5f5;align=center;verticalAlign=middle;whiteSpace=wrap;rounded=0;fontColor=#030303;" vertex="1" parent="1">
          <mxGeometry x="190" y="620" width="60" height="30" as="geometry" />
        </mxCell>
        <mxCell id="FvSDI9JlNfiMV472TmKZ-15" value="&lt;b&gt;&lt;font style=&quot;font-size: 14px;&quot;&gt;Start&lt;/font&gt;&lt;/b&gt;" style="text;html=1;strokeColor=#666666;fillColor=#f5f5f5;align=center;verticalAlign=middle;whiteSpace=wrap;rounded=0;fontColor=#333333;labelBackgroundColor=default;" vertex="1" parent="1">
          <mxGeometry x="190" width="60" height="30" as="geometry" />
        </mxCell>
        <mxCell id="FvSDI9JlNfiMV472TmKZ-16" value="" style="endArrow=classic;html=1;rounded=0;strokeColor=#23445D;exitX=0.5;exitY=1;exitDx=0;exitDy=0;exitPerimeter=0;entryX=0.5;entryY=0;entryDx=0;entryDy=0;" edge="1" parent="1" source="FvSDI9JlNfiMV472TmKZ-10">
          <mxGeometry width="50" height="50" relative="1" as="geometry">
            <mxPoint x="270" y="270" as="sourcePoint" />
            <mxPoint x="220" y="128" as="targetPoint" />
          </mxGeometry>
        </mxCell>
        <mxCell id="FvSDI9JlNfiMV472TmKZ-17" value="" style="rounded=0;html=1;jettySize=auto;orthogonalLoop=1;fontSize=11;endArrow=block;endFill=0;endSize=8;strokeWidth=1;shadow=0;labelBackgroundColor=none;edgeStyle=orthogonalEdgeStyle;fontColor=default;strokeColor=#23445D;exitX=0.5;exitY=1;exitDx=0;exitDy=0;" edge="1" parent="1">
          <mxGeometry x="0.3333" y="20" relative="1" as="geometry">
            <mxPoint as="offset" />
            <mxPoint x="220" y="518" as="sourcePoint" />
            <mxPoint x="220" y="580" as="targetPoint" />
            <Array as="points">
              <mxPoint x="220" y="580" />
            </Array>
          </mxGeometry>
        </mxCell>
      </root>
    </mxGraphModel>
  </diagram>
  <diagram id="1mSFf1N0m9ZMlH9mO2c6" name="Register_driver_activity">
    <mxGraphModel dx="1120" dy="446" grid="1" gridSize="10" guides="1" tooltips="1" connect="1" arrows="1" fold="1" page="1" pageScale="1" pageWidth="850" pageHeight="1400" math="0" shadow="0">
      <root>
        <mxCell id="0" />
        <mxCell id="1" parent="0" />
        <mxCell id="Z3OCxhkKQhIVrH2rUzQ_-1" value="" style="rounded=0;html=1;jettySize=auto;orthogonalLoop=1;fontSize=11;endArrow=block;endFill=0;endSize=8;strokeWidth=1;shadow=0;labelBackgroundColor=none;edgeStyle=orthogonalEdgeStyle;fontColor=default;strokeColor=#23445D;" edge="1" parent="1">
          <mxGeometry relative="1" as="geometry">
            <mxPoint x="220" y="168" as="sourcePoint" />
            <mxPoint x="220" y="218" as="targetPoint" />
          </mxGeometry>
        </mxCell>
        <mxCell id="Z3OCxhkKQhIVrH2rUzQ_-2" value="Register as Driver" style="rounded=1;whiteSpace=wrap;html=1;fontSize=12;glass=0;strokeWidth=1;shadow=0;labelBackgroundColor=none;fillColor=#182E3E;strokeColor=#FFFFFF;fontColor=#FFFFFF;" vertex="1" parent="1">
          <mxGeometry x="160" y="128" width="120" height="40" as="geometry" />
        </mxCell>
        <mxCell id="Z3OCxhkKQhIVrH2rUzQ_-3" value="Yes" style="rounded=0;html=1;jettySize=auto;orthogonalLoop=1;fontSize=11;endArrow=block;endFill=0;endSize=8;strokeWidth=1;shadow=0;labelBackgroundColor=none;edgeStyle=orthogonalEdgeStyle;fontColor=default;strokeColor=#23445D;" edge="1" parent="1">
          <mxGeometry y="20" relative="1" as="geometry">
            <mxPoint as="offset" />
            <mxPoint x="220" y="298" as="sourcePoint" />
            <mxPoint x="220" y="338" as="targetPoint" />
          </mxGeometry>
        </mxCell>
        <mxCell id="Z3OCxhkKQhIVrH2rUzQ_-4" value="No" style="edgeStyle=orthogonalEdgeStyle;rounded=0;html=1;jettySize=auto;orthogonalLoop=1;fontSize=11;endArrow=block;endFill=0;endSize=8;strokeWidth=1;shadow=0;labelBackgroundColor=none;fontColor=default;strokeColor=#23445D;" edge="1" parent="1">
          <mxGeometry y="10" relative="1" as="geometry">
            <mxPoint as="offset" />
            <mxPoint x="270" y="258" as="sourcePoint" />
            <mxPoint x="320" y="258" as="targetPoint" />
          </mxGeometry>
        </mxCell>
        <mxCell id="Z3OCxhkKQhIVrH2rUzQ_-5" value="All data input" style="rhombus;whiteSpace=wrap;html=1;shadow=0;fontFamily=Helvetica;fontSize=12;align=center;strokeWidth=1;spacing=6;spacingTop=-4;labelBackgroundColor=none;fillColor=#182E3E;strokeColor=#FFFFFF;fontColor=#FFFFFF;" vertex="1" parent="1">
          <mxGeometry x="170" y="218" width="100" height="80" as="geometry" />
        </mxCell>
        <mxCell id="Z3OCxhkKQhIVrH2rUzQ_-6" value="invalid parameter" style="rounded=1;whiteSpace=wrap;html=1;fontSize=12;glass=0;strokeWidth=1;shadow=0;labelBackgroundColor=none;fillColor=#182E3E;strokeColor=#FFFFFF;fontColor=#FFFFFF;" vertex="1" parent="1">
          <mxGeometry x="320" y="238" width="120" height="40" as="geometry" />
        </mxCell>
        <mxCell id="Z3OCxhkKQhIVrH2rUzQ_-7" value="Yes" style="rounded=0;html=1;jettySize=auto;orthogonalLoop=1;fontSize=11;endArrow=block;endFill=0;endSize=8;strokeWidth=1;shadow=0;labelBackgroundColor=none;edgeStyle=orthogonalEdgeStyle;fontColor=default;strokeColor=#23445D;" edge="1" parent="1">
          <mxGeometry x="0.3333" y="20" relative="1" as="geometry">
            <mxPoint as="offset" />
            <mxPoint x="220" y="418" as="sourcePoint" />
            <mxPoint x="220" y="478" as="targetPoint" />
          </mxGeometry>
        </mxCell>
        <mxCell id="Z3OCxhkKQhIVrH2rUzQ_-8" value="Register successfull" style="rhombus;whiteSpace=wrap;html=1;shadow=0;fontFamily=Helvetica;fontSize=12;align=center;strokeWidth=1;spacing=6;spacingTop=-4;labelBackgroundColor=none;fillColor=#182E3E;strokeColor=#FFFFFF;fontColor=#FFFFFF;" vertex="1" parent="1">
          <mxGeometry x="170" y="338" width="100" height="80" as="geometry" />
        </mxCell>
        <mxCell id="Z3OCxhkKQhIVrH2rUzQ_-9" value="Login Page" style="rounded=1;whiteSpace=wrap;html=1;fontSize=12;glass=0;strokeWidth=1;shadow=0;labelBackgroundColor=none;fillColor=#182E3E;strokeColor=#FFFFFF;fontColor=#FFFFFF;" vertex="1" parent="1">
          <mxGeometry x="160" y="717" width="120" height="40" as="geometry" />
        </mxCell>
        <mxCell id="Z3OCxhkKQhIVrH2rUzQ_-10" value="" style="strokeWidth=2;html=1;shape=mxgraph.flowchart.start_1;whiteSpace=wrap;labelBackgroundColor=none;fillColor=#182E3E;strokeColor=#FFFFFF;fontColor=#FFFFFF;" vertex="1" parent="1">
          <mxGeometry x="205" y="43" width="30" height="30" as="geometry" />
        </mxCell>
        <mxCell id="Z3OCxhkKQhIVrH2rUzQ_-11" value="" style="endArrow=none;html=1;rounded=0;strokeColor=#23445D;exitX=0.5;exitY=0;exitDx=0;exitDy=0;" edge="1" parent="1">
          <mxGeometry width="50" height="50" relative="1" as="geometry">
            <mxPoint x="380" y="238" as="sourcePoint" />
            <mxPoint x="380" y="150" as="targetPoint" />
            <Array as="points">
              <mxPoint x="380" y="200" />
            </Array>
          </mxGeometry>
        </mxCell>
        <mxCell id="Z3OCxhkKQhIVrH2rUzQ_-12" value="" style="endArrow=classic;html=1;rounded=0;strokeColor=#23445D;entryX=1;entryY=0.5;entryDx=0;entryDy=0;" edge="1" parent="1">
          <mxGeometry width="50" height="50" relative="1" as="geometry">
            <mxPoint x="380" y="150" as="sourcePoint" />
            <mxPoint x="280" y="148" as="targetPoint" />
          </mxGeometry>
        </mxCell>
        <mxCell id="Z3OCxhkKQhIVrH2rUzQ_-13" value="" style="ellipse;shape=doubleEllipse;whiteSpace=wrap;html=1;strokeColor=#FFFFFF;fontColor=#FFFFFF;fillColor=#182E3E;" vertex="1" parent="1">
          <mxGeometry x="200" y="824" width="40" height="30" as="geometry" />
        </mxCell>
        <mxCell id="Z3OCxhkKQhIVrH2rUzQ_-14" value="&lt;b&gt;&lt;font style=&quot;font-size: 13px;&quot;&gt;STOP&lt;/font&gt;&lt;/b&gt;" style="text;html=1;strokeColor=#666666;fillColor=#f5f5f5;align=center;verticalAlign=middle;whiteSpace=wrap;rounded=0;fontColor=#030303;" vertex="1" parent="1">
          <mxGeometry x="190" y="859" width="60" height="30" as="geometry" />
        </mxCell>
        <mxCell id="Z3OCxhkKQhIVrH2rUzQ_-15" value="&lt;b&gt;&lt;font style=&quot;font-size: 14px;&quot;&gt;Start&lt;/font&gt;&lt;/b&gt;" style="text;html=1;strokeColor=#666666;fillColor=#f5f5f5;align=center;verticalAlign=middle;whiteSpace=wrap;rounded=0;fontColor=#333333;labelBackgroundColor=default;" vertex="1" parent="1">
          <mxGeometry x="190" width="60" height="30" as="geometry" />
        </mxCell>
        <mxCell id="Z3OCxhkKQhIVrH2rUzQ_-16" value="" style="endArrow=classic;html=1;rounded=0;strokeColor=#23445D;exitX=0.5;exitY=1;exitDx=0;exitDy=0;exitPerimeter=0;entryX=0.5;entryY=0;entryDx=0;entryDy=0;" edge="1" parent="1" source="Z3OCxhkKQhIVrH2rUzQ_-10">
          <mxGeometry width="50" height="50" relative="1" as="geometry">
            <mxPoint x="270" y="270" as="sourcePoint" />
            <mxPoint x="220" y="128" as="targetPoint" />
          </mxGeometry>
        </mxCell>
        <mxCell id="Z3OCxhkKQhIVrH2rUzQ_-17" value="" style="rounded=0;html=1;jettySize=auto;orthogonalLoop=1;fontSize=11;endArrow=block;endFill=0;endSize=8;strokeWidth=1;shadow=0;labelBackgroundColor=none;edgeStyle=orthogonalEdgeStyle;fontColor=default;strokeColor=#23445D;exitX=0.5;exitY=1;exitDx=0;exitDy=0;" edge="1" parent="1">
          <mxGeometry x="0.3333" y="20" relative="1" as="geometry">
            <mxPoint as="offset" />
            <mxPoint x="220" y="757" as="sourcePoint" />
            <mxPoint x="220" y="819" as="targetPoint" />
            <Array as="points">
              <mxPoint x="220" y="819" />
            </Array>
          </mxGeometry>
        </mxCell>
        <mxCell id="Z3OCxhkKQhIVrH2rUzQ_-21" value="" style="edgeStyle=orthogonalEdgeStyle;rounded=0;orthogonalLoop=1;jettySize=auto;html=1;strokeColor=#23445D;" edge="1" parent="1" source="Z3OCxhkKQhIVrH2rUzQ_-18" target="Z3OCxhkKQhIVrH2rUzQ_-20">
          <mxGeometry relative="1" as="geometry" />
        </mxCell>
        <mxCell id="Z3OCxhkKQhIVrH2rUzQ_-18" value="Vehicle Registration" style="rhombus;whiteSpace=wrap;html=1;strokeColor=#FFFFFF;fontColor=#FFFFFF;fillColor=#182E3E;" vertex="1" parent="1">
          <mxGeometry x="180" y="480" width="80" height="80" as="geometry" />
        </mxCell>
        <mxCell id="Z3OCxhkKQhIVrH2rUzQ_-23" value="no" style="edgeStyle=orthogonalEdgeStyle;rounded=0;orthogonalLoop=1;jettySize=auto;html=1;strokeColor=#23445D;" edge="1" parent="1" source="Z3OCxhkKQhIVrH2rUzQ_-20" target="Z3OCxhkKQhIVrH2rUzQ_-22">
          <mxGeometry relative="1" as="geometry" />
        </mxCell>
        <mxCell id="Z3OCxhkKQhIVrH2rUzQ_-20" value="check vehicle" style="rhombus;whiteSpace=wrap;html=1;strokeColor=#FFFFFF;fontColor=#FFFFFF;fillColor=#182E3E;" vertex="1" parent="1">
          <mxGeometry x="180" y="591" width="80" height="80" as="geometry" />
        </mxCell>
        <mxCell id="Z3OCxhkKQhIVrH2rUzQ_-22" value="Invalid Vehicle" style="whiteSpace=wrap;html=1;fillColor=#182E3E;strokeColor=#FFFFFF;fontColor=#FFFFFF;" vertex="1" parent="1">
          <mxGeometry x="320" y="601" width="120" height="60" as="geometry" />
        </mxCell>
        <mxCell id="Z3OCxhkKQhIVrH2rUzQ_-24" value="" style="edgeStyle=segmentEdgeStyle;endArrow=classic;html=1;curved=0;rounded=0;endSize=8;startSize=8;strokeColor=#23445D;exitX=0.5;exitY=0;exitDx=0;exitDy=0;entryX=1;entryY=0.5;entryDx=0;entryDy=0;" edge="1" parent="1" source="Z3OCxhkKQhIVrH2rUzQ_-22" target="Z3OCxhkKQhIVrH2rUzQ_-18">
          <mxGeometry width="50" height="50" relative="1" as="geometry">
            <mxPoint x="400" y="620" as="sourcePoint" />
            <mxPoint x="350" y="510" as="targetPoint" />
            <Array as="points">
              <mxPoint x="380" y="520" />
            </Array>
          </mxGeometry>
        </mxCell>
        <mxCell id="Z3OCxhkKQhIVrH2rUzQ_-26" value="&lt;span style=&quot;color: rgb(0, 0, 0); font-family: Helvetica; font-size: 11px; font-style: normal; font-variant-ligatures: normal; font-variant-caps: normal; font-weight: 400; letter-spacing: normal; orphans: 2; text-align: center; text-indent: 0px; text-transform: none; widows: 2; word-spacing: 0px; -webkit-text-stroke-width: 0px; background-color: rgb(251, 251, 251); text-decoration-thickness: initial; text-decoration-style: initial; text-decoration-color: initial; float: none; display: inline !important;&quot;&gt;Yes&lt;/span&gt;" style="text;whiteSpace=wrap;html=1;fontColor=#FFFFFF;" vertex="1" parent="1">
          <mxGeometry x="230" y="680" width="50" height="40" as="geometry" />
        </mxCell>
        <mxCell id="Z3OCxhkKQhIVrH2rUzQ_-29" value="" style="endArrow=classic;html=1;rounded=0;strokeColor=#23445D;exitX=0.5;exitY=1;exitDx=0;exitDy=0;entryX=0.5;entryY=0;entryDx=0;entryDy=0;" edge="1" parent="1" source="Z3OCxhkKQhIVrH2rUzQ_-20" target="Z3OCxhkKQhIVrH2rUzQ_-9">
          <mxGeometry width="50" height="50" relative="1" as="geometry">
            <mxPoint x="400" y="620" as="sourcePoint" />
            <mxPoint x="450" y="570" as="targetPoint" />
          </mxGeometry>
        </mxCell>
      </root>
    </mxGraphModel>
  </diagram>
  <diagram id="eu9Zvt4hk4hSb_LsmvqL" name="Ride_booking_page">
    <mxGraphModel dx="933" dy="372" grid="1" gridSize="10" guides="1" tooltips="1" connect="1" arrows="1" fold="1" page="1" pageScale="1" pageWidth="850" pageHeight="1400" math="0" shadow="0">
      <root>
        <mxCell id="0" />
        <mxCell id="1" parent="0" />
        <mxCell id="ugu_LTNQzRvbu9mLg3Lq-1" value="Home Page" style="rhombus;whiteSpace=wrap;html=1;strokeColor=#FFFFFF;fontColor=#FFFFFF;fillColor=#182E3E;" vertex="1" parent="1">
          <mxGeometry x="380" y="190" width="80" height="80" as="geometry" />
        </mxCell>
        <mxCell id="ugu_LTNQzRvbu9mLg3Lq-2" value="Enter Destination Location" style="rounded=1;whiteSpace=wrap;html=1;strokeColor=#FFFFFF;fontColor=#FFFFFF;fillColor=#182E3E;" vertex="1" parent="1">
          <mxGeometry x="220" y="60" width="120" height="60" as="geometry" />
        </mxCell>
        <mxCell id="ugu_LTNQzRvbu9mLg3Lq-3" value="" style="edgeStyle=segmentEdgeStyle;endArrow=classic;html=1;curved=0;rounded=0;endSize=8;startSize=8;strokeColor=#23445D;exitX=0;exitY=0.5;exitDx=0;exitDy=0;entryX=0.5;entryY=1;entryDx=0;entryDy=0;" edge="1" parent="1" source="ugu_LTNQzRvbu9mLg3Lq-1" target="ugu_LTNQzRvbu9mLg3Lq-2">
          <mxGeometry width="50" height="50" relative="1" as="geometry">
            <mxPoint x="400" y="260" as="sourcePoint" />
            <mxPoint x="450" y="210" as="targetPoint" />
          </mxGeometry>
        </mxCell>
        <mxCell id="ugu_LTNQzRvbu9mLg3Lq-7" value="" style="edgeStyle=orthogonalEdgeStyle;rounded=0;orthogonalLoop=1;jettySize=auto;html=1;strokeColor=#23445D;" edge="1" parent="1" source="ugu_LTNQzRvbu9mLg3Lq-4" target="ugu_LTNQzRvbu9mLg3Lq-6">
          <mxGeometry relative="1" as="geometry" />
        </mxCell>
        <mxCell id="ugu_LTNQzRvbu9mLg3Lq-4" value="Check the Route for Destination" style="rounded=1;whiteSpace=wrap;html=1;strokeColor=#FFFFFF;fontColor=#FFFFFF;fillColor=#182E3E;" vertex="1" parent="1">
          <mxGeometry x="550" y="60" width="120" height="60" as="geometry" />
        </mxCell>
        <mxCell id="ugu_LTNQzRvbu9mLg3Lq-5" value="" style="endArrow=classic;html=1;rounded=0;strokeColor=#23445D;exitX=1;exitY=0.5;exitDx=0;exitDy=0;entryX=0;entryY=0.5;entryDx=0;entryDy=0;" edge="1" parent="1" source="ugu_LTNQzRvbu9mLg3Lq-2" target="ugu_LTNQzRvbu9mLg3Lq-4">
          <mxGeometry width="50" height="50" relative="1" as="geometry">
            <mxPoint x="400" y="260" as="sourcePoint" />
            <mxPoint x="450" y="210" as="targetPoint" />
          </mxGeometry>
        </mxCell>
        <mxCell id="ugu_LTNQzRvbu9mLg3Lq-8" value="" style="edgeStyle=orthogonalEdgeStyle;rounded=0;orthogonalLoop=1;jettySize=auto;html=1;strokeColor=#23445D;" edge="1" parent="1" source="ugu_LTNQzRvbu9mLg3Lq-6" target="ugu_LTNQzRvbu9mLg3Lq-1">
          <mxGeometry relative="1" as="geometry" />
        </mxCell>
        <mxCell id="ugu_LTNQzRvbu9mLg3Lq-12" value="" style="edgeStyle=orthogonalEdgeStyle;rounded=0;orthogonalLoop=1;jettySize=auto;html=1;strokeColor=#23445D;" edge="1" parent="1" source="ugu_LTNQzRvbu9mLg3Lq-6" target="ugu_LTNQzRvbu9mLg3Lq-11">
          <mxGeometry relative="1" as="geometry" />
        </mxCell>
        <mxCell id="ugu_LTNQzRvbu9mLg3Lq-6" value="Route Verified" style="rhombus;whiteSpace=wrap;html=1;strokeColor=#FFFFFF;fontColor=#FFFFFF;fillColor=#182E3E;" vertex="1" parent="1">
          <mxGeometry x="570" y="190" width="80" height="80" as="geometry" />
        </mxCell>
        <mxCell id="ugu_LTNQzRvbu9mLg3Lq-9" value="no" style="text;html=1;align=center;verticalAlign=middle;resizable=0;points=[];autosize=1;strokeColor=white;fillColor=none;fontColor=#0D0D0D;" vertex="1" parent="1">
          <mxGeometry x="500" y="198" width="40" height="30" as="geometry" />
        </mxCell>
        <mxCell id="ugu_LTNQzRvbu9mLg3Lq-15" value="" style="edgeStyle=orthogonalEdgeStyle;rounded=0;orthogonalLoop=1;jettySize=auto;html=1;strokeColor=#23445D;" edge="1" parent="1" source="ugu_LTNQzRvbu9mLg3Lq-11" target="ugu_LTNQzRvbu9mLg3Lq-14">
          <mxGeometry relative="1" as="geometry" />
        </mxCell>
        <mxCell id="ugu_LTNQzRvbu9mLg3Lq-11" value="Click Search Button" style="whiteSpace=wrap;html=1;fillColor=#182E3E;strokeColor=#FFFFFF;fontColor=#FFFFFF;" vertex="1" parent="1">
          <mxGeometry x="550" y="360" width="120" height="60" as="geometry" />
        </mxCell>
        <mxCell id="ugu_LTNQzRvbu9mLg3Lq-13" value="Yes" style="text;html=1;align=center;verticalAlign=middle;resizable=0;points=[];autosize=1;strokeColor=none;fillColor=none;fontColor=#0D0D0D&#xa;;" vertex="1" parent="1">
          <mxGeometry x="600" y="288" width="40" height="30" as="geometry" />
        </mxCell>
        <mxCell id="ugu_LTNQzRvbu9mLg3Lq-17" value="" style="edgeStyle=orthogonalEdgeStyle;rounded=0;orthogonalLoop=1;jettySize=auto;html=1;strokeColor=#23445D;" edge="1" parent="1" source="ugu_LTNQzRvbu9mLg3Lq-14" target="ugu_LTNQzRvbu9mLg3Lq-16">
          <mxGeometry relative="1" as="geometry" />
        </mxCell>
        <mxCell id="ugu_LTNQzRvbu9mLg3Lq-14" value="Passenger will see any trip is ongoing within 10 KM within the passenger location" style="whiteSpace=wrap;html=1;fillColor=#182E3E;strokeColor=#FFFFFF;fontColor=#FFFFFF;" vertex="1" parent="1">
          <mxGeometry x="350" y="345" width="120" height="90" as="geometry" />
        </mxCell>
        <mxCell id="ugu_LTNQzRvbu9mLg3Lq-19" value="" style="edgeStyle=orthogonalEdgeStyle;rounded=0;orthogonalLoop=1;jettySize=auto;html=1;strokeColor=#23445D;" edge="1" parent="1" source="ugu_LTNQzRvbu9mLg3Lq-16" target="ugu_LTNQzRvbu9mLg3Lq-18">
          <mxGeometry relative="1" as="geometry" />
        </mxCell>
        <mxCell id="ugu_LTNQzRvbu9mLg3Lq-16" value="View Result" style="whiteSpace=wrap;html=1;fillColor=#182E3E;strokeColor=#FFFFFF;fontColor=#FFFFFF;" vertex="1" parent="1">
          <mxGeometry x="350" y="530" width="120" height="60" as="geometry" />
        </mxCell>
        <mxCell id="ugu_LTNQzRvbu9mLg3Lq-21" value="" style="edgeStyle=orthogonalEdgeStyle;rounded=0;orthogonalLoop=1;jettySize=auto;html=1;strokeColor=#23445D;" edge="1" parent="1" source="ugu_LTNQzRvbu9mLg3Lq-18" target="ugu_LTNQzRvbu9mLg3Lq-20">
          <mxGeometry relative="1" as="geometry" />
        </mxCell>
        <mxCell id="ugu_LTNQzRvbu9mLg3Lq-23" value="" style="edgeStyle=orthogonalEdgeStyle;rounded=0;orthogonalLoop=1;jettySize=auto;html=1;strokeColor=#23445D;" edge="1" parent="1" source="ugu_LTNQzRvbu9mLg3Lq-18" target="ugu_LTNQzRvbu9mLg3Lq-22">
          <mxGeometry relative="1" as="geometry" />
        </mxCell>
        <mxCell id="ugu_LTNQzRvbu9mLg3Lq-18" value="Confirm Booking and payment now or later" style="whiteSpace=wrap;html=1;fillColor=#182E3E;strokeColor=#FFFFFF;fontColor=#FFFFFF;" vertex="1" parent="1">
          <mxGeometry x="350.74" y="632" width="120" height="60" as="geometry" />
        </mxCell>
        <mxCell id="ugu_LTNQzRvbu9mLg3Lq-29" value="" style="edgeStyle=orthogonalEdgeStyle;rounded=0;orthogonalLoop=1;jettySize=auto;html=1;strokeColor=#23445D;" edge="1" parent="1" source="ugu_LTNQzRvbu9mLg3Lq-20" target="ugu_LTNQzRvbu9mLg3Lq-28">
          <mxGeometry relative="1" as="geometry" />
        </mxCell>
        <mxCell id="ugu_LTNQzRvbu9mLg3Lq-20" value="received notification and now passenger and driver can contact each each&amp;nbsp;" style="whiteSpace=wrap;html=1;fillColor=#182E3E;strokeColor=#FFFFFF;fontColor=#FFFFFF;" vertex="1" parent="1">
          <mxGeometry x="350.74" y="772" width="120" height="60" as="geometry" />
        </mxCell>
        <mxCell id="ugu_LTNQzRvbu9mLg3Lq-25" value="" style="edgeStyle=orthogonalEdgeStyle;rounded=0;orthogonalLoop=1;jettySize=auto;html=1;strokeColor=#23445D;" edge="1" parent="1" source="ugu_LTNQzRvbu9mLg3Lq-22" target="ugu_LTNQzRvbu9mLg3Lq-24">
          <mxGeometry relative="1" as="geometry" />
        </mxCell>
        <mxCell id="ugu_LTNQzRvbu9mLg3Lq-22" value="Select Payment" style="rhombus;whiteSpace=wrap;html=1;fillColor=#182E3E;strokeColor=#FFFFFF;fontColor=#FFFFFF;" vertex="1" parent="1">
          <mxGeometry x="570.74" y="622" width="80" height="80" as="geometry" />
        </mxCell>
        <mxCell id="ugu_LTNQzRvbu9mLg3Lq-26" style="edgeStyle=orthogonalEdgeStyle;rounded=0;orthogonalLoop=1;jettySize=auto;html=1;entryX=1;entryY=0.5;entryDx=0;entryDy=0;strokeColor=#23445D;" edge="1" parent="1" source="ugu_LTNQzRvbu9mLg3Lq-24" target="ugu_LTNQzRvbu9mLg3Lq-20">
          <mxGeometry relative="1" as="geometry" />
        </mxCell>
        <mxCell id="ugu_LTNQzRvbu9mLg3Lq-24" value="Payment done via UPI or debit cards" style="whiteSpace=wrap;html=1;fillColor=#182E3E;strokeColor=#FFFFFF;fontColor=#FFFFFF;" vertex="1" parent="1">
          <mxGeometry x="670" y="772" width="120" height="60" as="geometry" />
        </mxCell>
        <mxCell id="ugu_LTNQzRvbu9mLg3Lq-27" style="edgeStyle=orthogonalEdgeStyle;rounded=0;orthogonalLoop=1;jettySize=auto;html=1;exitX=0.5;exitY=1;exitDx=0;exitDy=0;strokeColor=#23445D;" edge="1" parent="1" source="ugu_LTNQzRvbu9mLg3Lq-20" target="ugu_LTNQzRvbu9mLg3Lq-20">
          <mxGeometry relative="1" as="geometry" />
        </mxCell>
        <mxCell id="ugu_LTNQzRvbu9mLg3Lq-33" value="" style="edgeStyle=orthogonalEdgeStyle;rounded=0;orthogonalLoop=1;jettySize=auto;html=1;strokeColor=#23445D;" edge="1" parent="1" source="ugu_LTNQzRvbu9mLg3Lq-28" target="ugu_LTNQzRvbu9mLg3Lq-32">
          <mxGeometry relative="1" as="geometry" />
        </mxCell>
        <mxCell id="ugu_LTNQzRvbu9mLg3Lq-28" value="Review of Driver and Car" style="whiteSpace=wrap;html=1;fillColor=#182E3E;strokeColor=#FFFFFF;fontColor=#FFFFFF;" vertex="1" parent="1">
          <mxGeometry x="350.74" y="912" width="120" height="60" as="geometry" />
        </mxCell>
        <mxCell id="ugu_LTNQzRvbu9mLg3Lq-32" value="Exit" style="rhombus;whiteSpace=wrap;html=1;fillColor=#182E3E;strokeColor=#FFFFFF;fontColor=#FFFFFF;" vertex="1" parent="1">
          <mxGeometry x="570.74" y="902" width="80" height="80" as="geometry" />
        </mxCell>
      </root>
    </mxGraphModel>
  </diagram>
</mxfile>
